<svg width="39" height="36" viewBox="0 0 39 36" fill="none" xmlns="http://www.w3.org/2000/svg">
<path fill-rule="evenodd" clip-rule="evenodd" d="M36.2645 1.14804L35.0697 17.874L29.566 13.2072C23.4991 15.9201 20.2447 20.671 20.0736 26.825C14.489 18.4309 17.7527 11.1444 23.9502 6.30023L20.2105 0.933368L36.2645 1.14804ZM8.80477 0H13.3347V6.11978H10.1644C8.86699 6.11978 7.68784 6.6518 6.82914 7.5105C5.97355 8.36609 5.44153 9.54835 5.44153 10.8457L5.4322 25.1574C5.44153 26.4516 5.97667 27.6308 6.83225 28.4895C7.69095 29.3482 8.87322 29.8833 10.1644 29.8833H28.2157C29.5069 29.8833 30.6891 29.3482 31.5478 28.4895C32.4065 27.6308 32.9417 26.4516 32.9417 25.1574V22.992H38.2339V26.517C38.2339 28.9344 37.2383 31.8185 35.6453 33.4115C34.0524 35.0044 31.8465 36 29.4291 36H8.80477C6.38735 36 4.18149 35.0044 2.58854 33.4115C0.992481 31.8154 0 29.6127 0 27.1952L0.00933368 8.80788C0 6.38424 0.992481 4.17838 2.58543 2.58543C4.17838 0.992481 6.38112 0 8.80477 0Z" fill="#2850CC"/>
</svg>
