<svg width="36" height="33" viewBox="0 0 36 33" fill="none" xmlns="http://www.w3.org/2000/svg">
<path d="M24.6667 30.5V27.3889C24.6667 25.7387 24.0111 24.156 22.8442 22.9891C21.6774 21.8222 20.0947 21.1667 18.4445 21.1667H9.11114C7.4609 21.1667 5.87826 21.8222 4.71136 22.9891C3.54447 24.156 2.88892 25.7387 2.88892 27.3889V30.5M34 30.5V27.3889C33.999 26.0102 33.5401 24.671 32.6955 23.5814C31.8508 22.4918 30.6682 21.7136 29.3334 21.3689M24.6667 2.70222C26.0051 3.04491 27.1914 3.82331 28.0386 4.91471C28.8857 6.0061 29.3456 7.3484 29.3456 8.73C29.3456 10.1116 28.8857 11.4539 28.0386 12.5453C27.1914 13.6367 26.0051 14.4151 24.6667 14.7578M20 8.72222C20 12.1587 17.2142 14.9444 13.7778 14.9444C10.3414 14.9444 7.55558 12.1587 7.55558 8.72222C7.55558 5.28578 10.3414 2.5 13.7778 2.5C17.2142 2.5 20 5.28578 20 8.72222Z" stroke="url(#paint0_linear_343_1047)" stroke-width="4" strokeLinecap="round" strokeLinejoin="round"/>
<defs>
<linearGradient id="paint0_linear_343_1047" x1="4.59832" y1="4.19231" x2="29.1674" y2="32.1695" gradientUnits="userSpaceOnUse">
<stop stop-color="#1E3478"/>
<stop offset="0.475" stop-color="#192A70"/>
<stop offset="1" stop-color="#1A104C"/>
</linearGradient>
</defs>
</svg>
