<svg width="37" height="33" viewBox="0 0 37 33" fill="none" xmlns="http://www.w3.org/2000/svg">
<path d="M2.05908 12.3825V5.79426C2.05908 4.92061 2.40614 4.08274 3.0239 3.46498C3.64166 2.84721 4.47953 2.50016 5.35318 2.50016H11.7767C12.3276 2.49476 12.8711 2.62762 13.3573 2.88659C13.8436 3.14556 14.2572 3.52236 14.5602 3.9825L15.8943 5.95896C16.1942 6.41442 16.6026 6.78829 17.0826 7.04701C17.5627 7.30573 18.0995 7.44122 18.6449 7.44131H31.706C32.5796 7.44131 33.4175 7.78836 34.0353 8.40613C34.653 9.02389 35.0001 9.86176 35.0001 10.7354V27.2059C35.0001 28.0796 34.653 28.9174 34.0353 29.5352C33.4175 30.1529 32.5796 30.5 31.706 30.5H5.35318C4.47953 30.5 3.64166 30.1529 3.0239 29.5352C2.40614 28.9174 2.05908 28.0796 2.05908 27.2059V22.2648C2.05908 21.3911 2.40614 20.5532 3.0239 19.9355C3.64166 19.3177 4.47953 18.9707 5.35318 18.9707H16.8825M16.8825 18.9707L11.9414 23.9118M16.8825 18.9707L11.9414 14.0295" stroke="url(#paint0_linear_343_1749)" stroke-width="4" strokeLinecap="round" strokeLinejoin="round"/>
<defs>
<linearGradient id="paint0_linear_343_1749" x1="3.86903" y1="4.19231" x2="28.2185" y2="33.5503" gradientUnits="userSpaceOnUse">
<stop stop-color="#1E3478"/>
<stop offset="0.475" stop-color="#192A70"/>
<stop offset="1" stop-color="#1A104C"/>
</linearGradient>
</defs>
</svg>
