<svg width="371" height="425" viewBox="0 0 371 425" fill="none" xmlns="http://www.w3.org/2000/svg">
<path d="M291.707 100.453C294.162 100.453 296.152 98.463 296.152 96.0079C296.152 93.5528 294.162 91.5625 291.707 91.5625C289.252 91.5625 287.261 93.5528 287.261 96.0079C287.261 98.463 289.252 100.453 291.707 100.453Z" fill="#B2B2B2"/>
<path d="M366.087 175.615C368.542 175.615 370.533 173.625 370.533 171.17C370.533 168.715 368.542 166.724 366.087 166.724C363.632 166.724 361.642 168.715 361.642 171.17C361.642 173.625 363.632 175.615 366.087 175.615Z" fill="#B2B2B2"/>
<path d="M58.9785 386.196C61.4336 386.196 63.4238 384.206 63.4238 381.751C63.4238 379.296 61.4336 377.305 58.9785 377.305C56.5234 377.305 54.5331 379.296 54.5331 381.751C54.5331 384.206 56.5234 386.196 58.9785 386.196Z" fill="#B2B2B2"/>
<path d="M329.535 382.338C331.99 382.338 333.98 380.348 333.98 377.893C333.98 375.438 331.99 373.447 329.535 373.447C327.08 373.447 325.089 375.438 325.089 377.893C325.089 380.348 327.08 382.338 329.535 382.338Z" fill="#B2B2B2"/>
<path d="M183.704 57.3171C183.704 58.7187 182.568 59.8541 181.167 59.8541C179.765 59.8541 178.63 58.7177 178.63 57.3171C178.63 55.9155 179.766 54.78 181.167 54.78C182.568 54.78 183.704 55.9155 183.704 57.3171Z" fill="#B2B2B2"/>
<path d="M7.09653 215C9.55163 215 11.5419 213.01 11.5419 210.555C11.5419 208.1 9.55163 206.109 7.09653 206.109C4.64143 206.109 2.65118 208.1 2.65118 210.555C2.65118 213.01 4.64143 215 7.09653 215Z" fill="#B2B2B2"/>
<path d="M327.417 101.522C328.635 101.522 329.622 100.535 329.622 99.3177C329.622 98.1001 328.635 97.113 327.417 97.113C326.2 97.113 325.213 98.1001 325.213 99.3177C325.213 100.535 326.2 101.522 327.417 101.522Z" fill="#B2B2B2"/>
<path d="M30.7173 354.278C31.9349 354.278 32.922 353.291 32.922 352.074C32.922 350.856 31.9349 349.869 30.7173 349.869C29.4997 349.869 28.5126 350.856 28.5126 352.074C28.5126 353.291 29.4997 354.278 30.7173 354.278Z" fill="#989898"/>
<path d="M356.175 336.109C357.392 336.109 358.38 335.122 358.38 333.904C358.38 332.686 357.392 331.699 356.175 331.699C354.957 331.699 353.97 332.686 353.97 333.904C353.97 335.122 354.957 336.109 356.175 336.109Z" fill="#989898"/>
<path d="M153.171 394.75C153.171 395.968 152.184 396.954 150.966 396.954C149.748 396.954 148.761 395.968 148.761 394.75C148.761 393.532 149.748 392.545 150.966 392.545C152.184 392.544 153.171 393.532 153.171 394.75Z" fill="#989898"/>
<path d="M40.1904 316.946C40.1904 318.164 39.2036 319.15 37.9857 319.15C36.7678 319.15 35.781 318.164 35.781 316.946C35.781 315.728 36.7678 314.741 37.9857 314.741C39.2036 314.741 40.1904 315.728 40.1904 316.946Z" fill="#B2B2B2"/>
<path d="M131.499 422.641C131.499 423.858 130.512 424.845 129.294 424.845C128.076 424.845 127.09 423.858 127.09 422.641C127.09 421.423 128.076 420.436 129.294 420.436C130.512 420.436 131.499 421.423 131.499 422.641Z" fill="#B2B2B2"/>
<path d="M258.446 67.4133C258.446 68.6312 257.459 69.618 256.242 69.618C255.024 69.618 254.037 68.6312 254.037 67.4133C254.037 66.1954 255.024 65.2086 256.242 65.2086C257.458 65.2086 258.446 66.1954 258.446 67.4133Z" fill="#989898"/>
<path d="M262.249 308.466C262.249 309.684 261.263 310.671 260.045 310.671C258.827 310.671 257.84 309.684 257.84 308.466C257.84 307.248 258.827 306.261 260.045 306.261C261.263 306.261 262.249 307.249 262.249 308.466Z" fill="#B2B2B2"/>
<path d="M363.476 222.77C363.476 223.988 362.489 224.975 361.272 224.975C360.054 224.975 359.067 223.988 359.067 222.77C359.067 221.553 360.054 220.566 361.272 220.566C362.489 220.566 363.476 221.553 363.476 222.77Z" fill="#B2B2B2"/>
<path d="M2.67197 309.46C3.88958 309.46 4.87665 308.473 4.87665 307.256C4.87665 306.038 3.88958 305.051 2.67197 305.051C1.45436 305.051 0.467285 306.038 0.467285 307.256C0.467285 308.473 1.45436 309.46 2.67197 309.46Z" fill="#989898"/>
<path d="M199.091 409.394C200.309 409.394 201.296 408.406 201.296 407.189C201.296 405.971 200.309 404.984 199.091 404.984C197.874 404.984 196.887 405.971 196.887 407.189C196.887 408.406 197.874 409.394 199.091 409.394Z" fill="#B2B2B2"/>
<path d="M119.144 323.39C120.362 323.39 121.349 322.403 121.349 321.185C121.349 319.968 120.362 318.981 119.144 318.981C117.926 318.981 116.939 319.968 116.939 321.185C116.939 322.403 117.926 323.39 119.144 323.39Z" fill="#989898"/>
<path d="M266.102 143.122C266.102 144.339 265.115 145.326 263.897 145.326C262.679 145.326 261.693 144.339 261.693 143.122C261.693 141.904 262.679 140.917 263.897 140.917C265.115 140.917 266.102 141.904 266.102 143.122Z" fill="#989898"/>
<path d="M63.7448 321.402V274.939H7.24231V247.389L56.5067 132.285H94.0971V249.257H113.476V274.939H94.0971V321.402H63.7448ZM34.3264 249.258H63.7448V167.074L34.3264 249.258ZM179.782 324.205C168.73 324.205 159.586 321.87 152.349 317.2C145.112 312.532 139.66 306.074 136.005 297.821C132.347 289.573 130.519 280.077 130.519 269.337V185.518C130.519 174.467 132.27 164.777 135.772 156.45C139.274 148.126 144.644 141.623 151.882 136.955C159.119 132.285 168.419 129.95 179.782 129.95C191.143 129.95 200.446 132.285 207.684 136.955C214.921 141.623 220.292 148.126 223.794 156.45C227.296 164.778 229.047 174.468 229.047 185.518V269.337C229.047 280.077 227.216 289.573 223.561 297.821C219.902 306.073 214.454 312.531 207.217 317.2C199.98 321.869 190.833 324.205 179.782 324.205ZM179.782 296.421C184.605 296.421 188.188 294.943 190.523 291.984C192.857 289.029 194.411 285.448 195.191 281.245C195.968 277.042 196.359 272.918 196.359 268.87V185.985C196.359 181.628 196.009 177.309 195.309 173.027C194.608 168.748 193.091 165.128 190.756 162.169C188.422 159.214 184.763 157.733 179.782 157.733C174.799 157.733 171.143 159.214 168.809 162.169C166.475 165.128 164.957 168.747 164.257 173.027C163.556 177.309 163.206 181.629 163.206 185.985V268.87C163.206 272.918 163.633 277.042 164.491 281.245C165.343 285.448 166.942 289.029 169.277 291.984C171.611 294.943 175.113 296.421 179.782 296.421ZM306.096 321.402V274.939H249.591V247.389L298.858 132.285H336.445V249.257H355.822V274.939H336.445V321.402H306.096ZM276.676 249.258H306.096V167.074L276.676 249.258Z" fill="#989898" stroke="#263238" stroke-miterlimit="10"/>
<path d="M217.654 163.683C217.654 163.683 218.591 170.773 218.536 177.969C218.482 185.167 220.171 185.317 223.602 186.116C227.033 186.914 232.883 182.264 234.382 177.587C235.88 172.908 235.737 163.894 235.737 163.894L217.654 163.683Z" fill="#DEDEDE" stroke="#263238" stroke-miterlimit="10"/>
<path d="M233.312 172.351C233.157 175.545 232.209 180.665 227.465 183.188C223.445 185.325 219.949 183.441 218.978 182.818C219.68 185.318 221.222 185.563 223.602 186.116C227.033 186.913 232.883 182.264 234.382 177.586C235.88 172.908 235.737 163.893 235.737 163.893L233.625 163.868C233.549 166.236 233.416 170.202 233.312 172.351Z" fill="#DEDEDE" stroke="#263238" stroke-miterlimit="10"/>
<path d="M201.333 170.473C201.333 170.473 207.006 170.358 214.724 167.513C222.443 164.668 231.106 158.208 229.249 151.888C227.392 145.568 217.335 143.818 213.368 144.249C209.401 144.68 204.845 145.843 204.845 145.843C204.845 145.843 205.774 163.635 201.333 170.473Z" fill="#DEDEDE" stroke="#263238" stroke-miterlimit="10"/>
<path d="M197.599 173.052C197.599 173.052 202.67 172 205.745 167.987C208.821 163.973 209.956 157.496 208.315 153.158C206.674 148.821 197.599 173.052 197.599 173.052Z" fill="#989898" stroke="#263238" stroke-miterlimit="10"/>
<path d="M167.169 131.539C167.169 131.539 164.196 145.743 170.055 159.656C175.914 173.569 188.648 176.868 197.599 173.052C206.551 169.237 208.692 156.629 208.787 148.257C208.88 139.886 208.633 136.066 208.633 136.066C208.633 136.066 178.516 139.003 167.169 131.539Z" fill="#DEDEDE" stroke="#263238" stroke-miterlimit="10"/>
<path d="M166.077 127.644C166.077 127.644 164.743 132.305 167.439 134.019C170.134 135.733 184.066 143.919 200.617 140.783C209.857 139.032 207.825 136.321 207.664 134.833C207.502 133.345 166.077 127.644 166.077 127.644Z" fill="#989898" stroke="#263238" stroke-miterlimit="10"/>
<path d="M163.818 113.006C163.818 113.006 164.231 124.5 166.077 127.644C167.923 130.788 192.374 140.34 204.792 137.653C217.21 134.967 237.414 123.908 239.877 115.781C242.338 107.654 235.938 94.8658 229.916 88.7158C223.894 82.5658 221.252 81.348 221.252 81.348C221.252 81.348 206.498 101.012 188.141 107.522C169.782 114.031 163.818 113.006 163.818 113.006Z" fill="white" stroke="#263238" stroke-miterlimit="10"/>
<path d="M261.293 142.051C261.293 142.051 274.286 136.961 279.474 140.077C284.663 143.193 288.629 150.454 291.355 161.698C294.082 172.941 286.112 181.165 279.228 180.909C272.344 180.653 273.529 176.177 270.86 171.617C268.19 167.057 264.892 164.405 264.673 163.927C264.454 163.449 267.738 149.044 261.293 142.051Z" fill="white" stroke="#263238" stroke-miterlimit="10"/>
<path d="M279.474 140.077C278.087 139.245 276.142 139.001 274.037 139.087C276.665 141.033 281.86 145.788 285.257 154.834C289.963 167.367 287.836 173.954 285.425 176.39C283.014 178.826 277.926 179.713 275.724 179.451C275.363 179.408 274.94 179.357 274.491 179.304C275.434 180.229 276.849 180.822 279.227 180.91C286.112 181.166 294.081 172.942 291.354 161.699C288.629 150.454 284.663 143.192 279.474 140.077Z" fill="white" stroke="#263238" stroke-miterlimit="10"/>
<path d="M233.821 173.967C233.821 173.967 246.077 177.486 257.453 172.906C268.829 168.325 275.531 160.74 273.02 151.481C270.509 142.221 265.791 141.898 255.435 142.019C245.081 142.141 243.003 143.036 243.003 143.036C243.003 143.036 242.665 169.16 233.821 173.967Z" fill="white" stroke="#263238" stroke-miterlimit="10"/>
<path d="M247.323 129.66C248.501 117.182 240.119 106.185 228.6 105.097C217.082 104.01 206.789 113.244 205.611 125.722C204.433 138.2 212.815 149.197 224.334 150.285C235.852 151.372 246.145 142.138 247.323 129.66Z" fill="#989898" stroke="#263238" stroke-miterlimit="10"/>
<path d="M251.761 155.874C252.83 144.556 245.227 134.58 234.779 133.594C224.331 132.608 214.995 140.983 213.926 152.302C212.858 163.62 220.461 173.596 230.909 174.582C241.357 175.568 250.693 167.193 251.761 155.874Z" fill="#989898" stroke="#263238" stroke-miterlimit="10"/>
<path d="M249.12 142.371C249.12 142.371 249.972 124.049 241.019 113.984C232.066 103.919 211.721 112.15 208.342 127.233C204.964 142.317 212.106 164.954 221.437 170.797C230.768 176.64 238.677 170.93 243.984 162.828C249.291 154.727 249.12 142.371 249.12 142.371Z" fill="white" stroke="#263238" stroke-miterlimit="10"/>
<path d="M122.678 91.0474C122.678 91.0474 115.594 108.194 113.851 113.085C112.107 117.975 110.28 123.481 110.321 126.661C110.364 129.841 112.318 133.875 113.849 134.012C115.38 134.149 116.482 133.12 116.703 130.972C116.925 128.825 116.827 127.926 117.913 126.747C118.998 125.568 122.383 123.228 122.816 123.029C123.25 122.831 123.579 124.463 122.559 126.242C121.539 128.02 119.288 129.63 120.698 131.448C122.109 133.266 124.91 131.142 126.412 129.613C127.914 128.086 129.452 125.492 130.074 122.847C130.697 120.202 130.395 114.624 130.395 114.624L142.91 102.801C142.91 102.801 126.317 100.812 122.678 91.0474Z" fill="#DEDEDE" stroke="#263238" stroke-miterlimit="10"/>
<path d="M123.461 124.779C123.461 124.779 123.272 127.226 127.834 127.337" stroke="#263238" stroke-miterlimit="10"/>
<path d="M111.413 122.751C111.413 122.751 112.683 127.465 117.913 126.746" stroke="#263238" stroke-miterlimit="10"/>
<path d="M110.999 129.324C110.999 129.324 114.09 131.72 116.442 129.124" stroke="#263238" stroke-miterlimit="10"/>
<path d="M117.42 105.796C117.42 105.796 117.007 115.192 130.395 114.624" stroke="#263238" stroke-miterlimit="10"/>
<path d="M126.22 85.9618C126.22 85.9618 122.89 86.0205 122.678 91.0474C122.466 96.0742 126.493 103.826 134.214 105.11C141.936 106.394 146.741 101.777 148.149 97.9853C149.558 94.1934 131.505 82.9616 126.22 85.9618Z" fill="#989898" stroke="#263238" stroke-miterlimit="10"/>
<path d="M134.894 72.282C134.894 72.282 126.713 82.1179 125.285 87.1248C123.858 92.1327 127.431 101.297 136.502 102.435C145.573 103.573 150.968 96.0117 150.968 96.0117L134.894 72.282Z" fill="#DEDEDE" stroke="#263238" stroke-miterlimit="10"/>
<path d="M139.578 64.3422C139.578 64.3422 133.731 69.2856 133.326 77.3089C132.92 85.3321 140.309 94.5827 149.949 93.6943C159.588 92.8079 147.516 63.9586 139.578 64.3422Z" fill="#989898" stroke="#263238" stroke-miterlimit="10"/>
<path d="M143.607 70.2867C143.607 70.2867 139.316 75.4537 141.775 84.1332C144.234 92.8127 150.366 97.6056 150.366 97.6056C150.366 97.6056 162.227 114.665 167.215 117.309C172.203 119.951 181.009 120.056 198.874 112.808C216.739 105.56 223.773 94.9398 226.517 89.4858C229.261 84.0319 213.19 58.9375 207.639 55.2943C202.087 51.6511 194.831 50.4683 189.587 51.0384C184.341 51.6085 179.477 52.8946 179.477 52.8946L143.607 70.2867Z" fill="#989898" stroke="#263238" stroke-miterlimit="10"/>
<path d="M140.433 67.4342C140.433 67.4342 136.142 72.6012 138.602 81.2807C141.061 89.9602 147.192 94.7531 147.192 94.7531C147.192 94.7531 159.054 111.813 164.042 114.456C169.03 117.098 177.836 117.203 195.701 109.956C213.565 102.708 220.6 92.0873 223.343 86.6333C226.087 81.1794 210.017 56.0851 204.465 52.4419C198.914 48.7986 191.659 47.6158 186.412 48.1859C181.167 48.756 176.303 50.0421 176.303 50.0421L140.433 67.4342Z" fill="white" stroke="#263238" stroke-miterlimit="10"/>
<path d="M183.326 57.6957C187.409 43.3658 179.102 28.4394 164.772 24.3566C150.442 20.2739 135.516 28.5808 131.433 42.9107C127.35 57.2406 135.657 72.167 149.987 76.2497C164.317 80.3325 179.243 72.0255 183.326 57.6957Z" fill="#989898" stroke="#263238" stroke-miterlimit="10"/>
<path d="M177.428 62.1352C187.848 48.9235 185.585 29.7661 172.374 19.3458C159.162 8.9256 140.005 11.1885 129.584 24.4001C119.164 37.6118 121.427 56.7692 134.639 67.1895C147.85 77.6097 167.008 75.3468 177.428 62.1352Z" fill="#ABABAB" stroke="#263238" stroke-miterlimit="10"/>
<path d="M174.397 47.5797C174.713 46.9452 175.119 45.8183 175.002 44.3693C174.815 42.0822 172.248 37.8594 171.177 36.7164C170.106 35.5733 168.466 36.9209 168.466 36.9209L166.573 33.5192C162.008 25.3161 151.658 22.367 143.455 26.9317C135.252 31.4964 132.303 41.8464 136.868 50.0496L140.793 57.103L138.595 53.5441C138.595 53.5441 136.584 54.2279 136.992 55.7403C137.399 57.2527 139.634 61.6601 141.48 63.0229C142.79 63.9917 144.097 64.184 144.752 64.2162L149.931 73.5226C152.164 73.784 154.46 73.8096 156.79 73.5567C167.044 72.443 175.546 66.3583 180.179 57.9667L174.397 47.5797Z" fill="#263238" stroke="#263238" stroke-miterlimit="10"/>
<path d="M166.422 39.0631C162.973 32.8658 155.153 30.6374 148.955 34.0865L146.635 35.3783C140.437 38.8273 138.208 46.6479 141.658 52.8452L153.281 73.7329C154.44 73.7423 155.61 73.6865 156.789 73.5586C165.89 72.5699 173.605 67.6615 178.465 60.7037L166.422 39.0631Z" fill="white" stroke="#263238" stroke-miterlimit="10"/>
<path d="M152.137 51.7126C152.574 52.4967 152.544 53.3462 152.069 53.6104C151.596 53.8737 150.857 53.4523 150.42 52.6681C149.984 51.884 150.014 51.0345 150.489 50.7703C150.963 50.507 151.701 50.9284 152.137 51.7126Z" fill="#263238"/>
<path d="M161.763 46.3562C162.2 47.1403 162.169 47.9898 161.695 48.254C161.221 48.5173 160.483 48.0959 160.047 47.3117C159.61 46.5276 159.641 45.6781 160.115 45.4139C160.589 45.1506 161.326 45.572 161.763 46.3562Z" fill="#263238"/>
<path d="M157.036 47.6279L161.985 53.7855L157.485 55.8548" stroke="#263238" stroke-miterlimit="10"/>
<path d="M164.378 58.8664C164.811 59.6458 164.531 60.6289 163.752 61.0616C162.972 61.4954 161.989 61.2151 161.557 60.4357C161.123 59.6563 161.403 58.6732 162.183 58.2405C162.961 57.8067 163.944 58.087 164.378 58.8664Z" fill="#263238"/>
<path d="M145.436 50.6064C145.436 50.6064 146.153 47.5996 150.138 47.3383" stroke="#263238" stroke-miterlimit="10"/>
<path d="M156.352 43.6628C156.352 43.6628 157.401 40.4713 161.607 41.39" stroke="#263238" stroke-miterlimit="10"/>
<path d="M159.174 69.0432C159.174 69.0432 162.532 69.9997 164.893 69.5555C167.254 69.1114 169.153 67.8367 170.037 66.6927C170.922 65.5486 172.118 61.8401 172.118 61.8401" stroke="#263238" stroke-miterlimit="10"/>
<path d="M131.085 60.8704C129.268 44.143 141.355 29.1099 158.082 27.2926C167.743 26.2432 176.835 29.8391 183.146 36.2817C179.683 21.5128 165.674 11.3029 150.209 12.983C133.482 14.8003 121.395 29.8334 123.212 46.5608C123.98 53.6256 127.111 59.857 131.726 64.5685C131.443 63.3639 131.222 62.1318 131.085 60.8704Z" fill="white" stroke="#263238" stroke-miterlimit="10"/>
<path d="M203.779 78.8224C211.31 78.0042 216.667 70.4429 215.742 61.9337C214.818 53.4245 207.963 47.1897 200.431 48.0078C192.9 48.826 187.543 56.3873 188.468 64.8965C189.392 73.4057 196.247 79.6406 203.779 78.8224Z" fill="#989898" stroke="#263238" stroke-miterlimit="10"/>
<path d="M233.663 51.1614C233.663 51.1614 226.284 49.1774 214.312 48.8857C202.339 48.594 195.302 49.757 193.03 55.7081C190.758 61.6602 191.273 71.2886 198.65 74.4678C202.768 76.2425 208.814 75.2207 213.216 74.2121C217.617 73.2035 228.406 68.7146 231.798 63.3042C235.191 57.8938 235.259 53.6407 233.663 51.1614Z" fill="white" stroke="#263238" stroke-miterlimit="10"/>
<path d="M246.196 60.2804C246.196 60.2804 242.238 53.1483 234.857 51.1643C227.478 49.1802 220.708 54.0281 217.638 58.7395C214.567 63.451 215.933 65.0278 215.933 65.0278C215.933 65.0278 226.754 59.607 232.35 58.6013C237.944 57.5946 246.196 60.2804 246.196 60.2804Z" fill="#989898" stroke="#263238" stroke-miterlimit="10"/>
<path d="M215.658 69.833C215.658 69.833 213.922 64.8478 220.915 58.3834C227.908 51.919 240.763 54.2373 244.947 58.5586C249.131 62.8799 248.632 70.4969 245.316 74.1732C242.001 77.8505 238.678 79.0069 238.678 79.0069C238.678 79.0069 232.165 67.9077 215.658 69.833Z" fill="white" stroke="#263238" stroke-miterlimit="10"/>
<path d="M209.823 79.6215C209.823 79.6215 212.506 72.5643 215.658 69.833C218.811 67.1028 228.238 65.9455 235.267 68.3661C242.295 70.7867 241.052 78.8819 239.736 81.4133C238.418 83.9447 234.393 85.9732 234.393 85.9732L209.823 79.6215Z" fill="white" stroke="#263238" stroke-miterlimit="10"/>
<path d="M210.627 78.4728C210.627 78.4728 209.199 78.7607 207.768 80.2428C206.337 81.7249 205.883 82.438 203.01 84.0763C200.137 85.7147 197.092 85.78 198.221 88.8418C199.35 91.9035 203.545 91.447 205.614 90.9574C207.683 90.4669 208.53 89.7121 210.121 88.4781C211.712 87.2441 212.912 78.755 213.001 78.3478C213.09 77.9396 210.627 78.4728 210.627 78.4728Z" fill="white" stroke="#263238" stroke-miterlimit="10"/>
<path d="M218.149 75.6658C218.149 75.6658 213.927 74.6648 211.855 76.3496C209.783 78.0343 209.956 84.5158 210.121 88.4782C210.286 92.4405 211.691 95.6045 213.205 96.1036C214.718 96.6027 216.278 96.3006 216.876 95.7049C217.475 95.1092 216.848 89.34 217.267 84.6512C217.687 79.9615 218.149 75.6658 218.149 75.6658Z" fill="white" stroke="#263238" stroke-miterlimit="10"/>
<path d="M218.149 75.6658C218.149 75.6658 216.259 80.2494 215.708 84.9523C215.158 89.6553 217.706 96.0117 218.695 96.5686C219.685 97.1254 222.452 96.9568 223.096 95.56C223.74 94.1631 223.27 89.4166 223.343 86.6333C223.416 83.85 224.756 77.8667 224.558 76.0313C224.358 74.195 220.222 73.981 218.149 75.6658Z" fill="white" stroke="#263238" stroke-miterlimit="10"/>
<path d="M224.557 76.0304C224.557 76.0304 227.08 74.8276 228.913 75.823C230.745 76.8183 231.176 79.5571 230.925 80.9113C230.674 82.2656 229.825 90.3172 229.237 92.2387C228.65 94.1603 227.162 95.1177 225.952 94.9832C224.744 94.8487 223.917 93.3468 223.733 91.6421C223.547 89.9375 223.343 86.6323 223.343 86.6323L224.557 76.0304Z" fill="white" stroke="#263238" stroke-miterlimit="10"/>
<path d="M230.916 78.3913C230.916 78.3913 234.322 79.2152 235.325 79.9027C236.328 80.5893 236.702 82.8045 236.009 86.1967C235.316 89.589 234.336 91.5531 232.762 91.7236C231.189 91.895 229.911 89.9109 229.914 88.7158C229.918 87.5216 231.215 81.1453 230.916 78.3913Z" fill="white" stroke="#263238" stroke-miterlimit="10"/>
<path d="M185.967 80.954C188.099 84.3983 187.345 88.7262 184.284 90.6203C181.223 92.5153 177.013 91.2595 174.881 87.8152C172.749 84.3718 173.503 80.0439 176.564 78.1489C179.626 76.2548 183.835 77.5106 185.967 80.954Z" fill="#989898" stroke="#263238" stroke-miterlimit="10"/>
<path d="M169.185 92.5485C170.679 94.9624 170.151 97.9967 168.005 99.3244C165.859 100.653 162.908 99.7724 161.414 97.3584C159.919 94.9444 160.448 91.9102 162.594 90.5824C164.74 89.2538 167.69 90.1345 169.185 92.5485Z" fill="#263238"/>
<path d="M182.925 98.3149C184.42 100.729 183.891 103.762 181.745 105.091C179.599 106.419 176.648 105.539 175.154 103.125C173.66 100.711 174.188 97.6775 176.334 96.3489C178.48 95.0211 181.431 95.9009 182.925 98.3149Z" fill="#ABABAB" stroke="#263238" stroke-miterlimit="10"/>
</svg>
